<?xml version="1.0" encoding="iso-8859-1"?>
<!-- Uploaded to: SVG Repo, www.svgrepo.com, Generator: SVG Repo Mixer Tools -->
<svg height="800px" width="800px" version="1.1" id="Layer_1" xmlns="http://www.w3.org/2000/svg" xmlns:xlink="http://www.w3.org/1999/xlink" 
	 viewBox="0 0 512 512" xml:space="preserve">
<polygon style="fill:#F4B2B0;" points="178.766,14.157 178.766,394.529 220.218,344.516 253.792,394.529 258.207,394.529 
	291.781,344.516 333.233,394.529 333.233,14.157 "/>
<path style="fill:#B3404A;" d="M345.322,401.886c0.122-0.201,0.235-0.408,0.347-0.616c0.069-0.129,0.144-0.256,0.211-0.385
	c0.12-0.239,0.228-0.484,0.334-0.73c0.044-0.101,0.095-0.2,0.136-0.302c0.139-0.341,0.263-0.689,0.375-1.043
	c0.044-0.137,0.076-0.276,0.115-0.413c0.064-0.225,0.129-0.449,0.183-0.678c0.037-0.156,0.062-0.314,0.093-0.471
	c0.041-0.212,0.085-0.425,0.116-0.64c0.024-0.167,0.041-0.336,0.059-0.503c0.023-0.207,0.047-0.413,0.061-0.621
	c0.011-0.177,0.016-0.352,0.021-0.529c0.004-0.143,0.017-0.283,0.017-0.426V14.157C347.391,6.339,341.053,0,333.234,0H178.766
	c-7.819,0-14.157,6.339-14.157,14.157v380.371c0,0.143,0.013,0.285,0.017,0.426c0.006,0.177,0.008,0.353,0.021,0.529
	c0.014,0.208,0.038,0.415,0.061,0.621c0.018,0.167,0.034,0.336,0.059,0.503c0.033,0.215,0.075,0.428,0.116,0.64
	c0.031,0.157,0.057,0.316,0.093,0.471c0.052,0.229,0.117,0.453,0.183,0.678c0.04,0.139,0.072,0.277,0.115,0.413
	c0.112,0.354,0.236,0.702,0.375,1.043c0.041,0.102,0.092,0.201,0.136,0.302c0.106,0.246,0.214,0.491,0.334,0.73
	c0.065,0.13,0.14,0.258,0.211,0.385c0.112,0.207,0.225,0.413,0.347,0.616c0.078,0.129,0.163,0.253,0.246,0.379
	c0.129,0.198,0.26,0.394,0.399,0.585c0.037,0.051,0.068,0.103,0.105,0.154l77.234,103.313c2.78,3.719,7.037,5.682,11.349,5.682
	c2.949-0.001,5.923-0.917,8.464-2.819c6.263-4.683,7.544-13.554,2.862-19.815l-70.559-94.386l3.977-4.798l18.272-22.045
	l25.22,37.569c2.629,3.917,7.037,6.267,11.754,6.267s9.124-2.35,11.754-6.267l25.22-37.569l18.272,22.045l3.977,4.798
	l-21.856,29.236h-24.089c-7.819,0-14.157,6.339-14.157,14.157c0,7.817,6.338,14.157,14.157,14.157h31.181
	c4.464,0,8.667-2.105,11.338-5.681l32.777-43.846c0.037-0.051,0.068-0.103,0.105-0.154c0.139-0.191,0.27-0.387,0.399-0.585
	C345.158,402.138,345.243,402.015,345.322,401.886z M319.076,28.313v326.949L302.68,335.48c-2.85-3.437-7.155-5.33-11.614-5.103l0,0
	l0,0c-4.459,0.225-8.552,2.541-11.039,6.249L256,372.416l-24.027-35.791c-2.489-3.708-6.58-6.024-11.039-6.249
	c-0.239-0.013-0.477-0.018-0.715-0.018c-0.176,0-0.35,0.023-0.524,0.03c-0.234,0.008-0.466,0.018-0.697,0.038
	c-0.314,0.027-0.624,0.069-0.934,0.117c-0.214,0.033-0.428,0.064-0.64,0.106c-0.321,0.065-0.637,0.147-0.953,0.235
	c-0.195,0.054-0.392,0.103-0.585,0.166c-0.321,0.103-0.636,0.227-0.948,0.352c-0.18,0.072-0.361,0.137-0.537,0.217
	c-0.316,0.143-0.62,0.306-0.924,0.471c-0.164,0.089-0.331,0.168-0.491,0.265c-0.303,0.18-0.593,0.384-0.882,0.586
	c-0.149,0.105-0.304,0.198-0.449,0.309c-0.294,0.225-0.573,0.473-0.851,0.721c-0.125,0.11-0.256,0.21-0.377,0.324
	c-0.354,0.338-0.687,0.701-1.007,1.077c-0.031,0.037-0.068,0.069-0.099,0.106l-16.396,19.782V110.894h74.542
	c7.819,0,14.157-6.339,14.157-14.157s-6.338-14.157-14.157-14.157h-74.542V28.313H319.076z"/>
</svg>